<svg id="Layer_1" data-name="Layer 1" xmlns="http://www.w3.org/2000/svg" width="286.844" height="258.029" viewBox="0 0 286.844 258.029">
  <defs>
    <style>
      .cls-1 {
        fill: #ee754f;
      }

      .cls-1, .cls-2, .cls-3 {
        stroke: #1b1b1d;
        stroke-linecap: round;
        stroke-linejoin: round;
      }

      .cls-1, .cls-2 {
        stroke-width: 10.205px;
      }

      .cls-2 {
        fill: #fcc042;
      }

      .cls-3 {
        fill: none;
        stroke-width: 9.071px;
      }

      .cls-4 {
        fill: #1B1B1D;
      }
    </style>
  </defs>
  <g>
    <path class="cls-1" d="M86.137,131.619c-6.38,6.23-14.26,12.62-20.85,18.69-19.36,2.33-48.36-6.67-55.14-25.13-2.5-6.815.5-9.68,7.53-10.65a82.014,82.014,0,0,0,17.95-4.52c4.55-1.74,7.82-5.4,10.73-9.72,3.32-4.94,5.97-7.61,8.57-7.66s5.13,2.51,8.27,8.04c.66,1.17,1.42,2.29,1.98,3.51,1.98,4.34,4.79,7.01,10,7.65,5.7.7,10.17,4.49,12.87,9.42A8.617,8.617,0,0,1,86.137,131.619Z" transform="translate(-4.173 -20.536)"/>
    <path class="cls-2" d="M267.757,229.719a96.736,96.736,0,0,1-37.09,30.41c-13.45,6.31-27.64,9.78-42.45,11.71a188.8,188.8,0,0,1-73.5-4.77c-19.75-5.24-36.878-14.859-47.97-32.93C55,215,55,193,62.927,170.639c2.545-7.178,3.83-18.9,2.36-20.33,6.59-6.07,14.47-12.46,20.85-18.69a8.617,8.617,0,0,0,1.91-10.37c-2.7-4.93-7.17-8.72-12.87-9.42-5.21-.64-8.02-3.31-10-7.65-.56-1.22-1.32-2.34-1.98-3.51-3.14-5.53-5.68-8.09-8.27-8.04a111.522,111.522,0,0,1,0-11.99c1.35-17.94,7.87-31.53,22.27-42.46,17.64-13.39,37.42-15.27,57.95-9.35,16.21,4.68,28.62,14.61,35.04,30.84,8.16,20.62,5.71,40.61-4.04,59.98-5.01,9.96-2.47,18.15,8.1,21.85,14.68,5.14,32.68,7.14,53.39,3.41a58.79,58.79,0,0,0,27.3-12.95c5.35-4.52,14.76-15.29,14.76-15.29C294.927,136.639,287.927,202.639,267.757,229.719Z" transform="translate(-4.173 -20.536)"/>
    <path class="cls-3" d="M207.193,220.171c.311,3.221-3.072,7.4-5.126,9.65a27.724,27.724,0,0,1-9.457,6.716,35.9,35.9,0,0,1-21.062,1.85,57.939,57.939,0,0,1-19.664-8.3" transform="translate(-4.173 -20.536)"/>
    <path class="cls-3" d="M228.7,201c.584,5.36-2.605,10.683-7.143,13.592s-10.191,3.67-15.558,3.156-10.54-2.205-15.663-3.886" transform="translate(-4.173 -20.536)"/>
    <path class="cls-3" d="M216.048,197.348a27.726,27.726,0,0,0,10.034,1.087,13.776,13.776,0,0,0,8.938-4.3,9.25,9.25,0,0,0,1.808-9.454" transform="translate(-4.173 -20.536)"/>
  </g>
  <ellipse class="cls-4" cx="82.754" cy="63.103" rx="10" ry="13"/>
</svg>
